<?xml version="1.0" encoding="UTF-8"?>
<svg id="Camada_3" data-name="Camada 3" xmlns="http://www.w3.org/2000/svg" xmlns:xlink="http://www.w3.org/1999/xlink" viewBox="0 0 584.75 584.75">
  <defs>
    <style>
      .cls-1 {
        fill: url(#Gradiente_sem_nome_216);
      }

      .cls-2 {
        fill: #fff;
      }
    </style>
    <linearGradient id="Gradiente_sem_nome_216" data-name="Gradiente sem nome 216" x1="-231.38" y1="866" x2="797.41" y2="-260.76" gradientUnits="userSpaceOnUse">
      <stop offset="0" stop-color="aqua"/>
      <stop offset=".99" stop-color="#933bff"/>
    </linearGradient>
  </defs>
  <g id="hub">
    <g id="reworkdocs_icone">
      <rect class="cls-1" x="0" width="584.75" height="584.75" rx="92.93" ry="92.93"/>
      <g>
        <g>
          <path class="cls-2" d="M388.79,262.41l17.26-17.26c5.59-5.59,5.59-14.66,0-20.26l-17.26-17.26c-5.59-5.59-14.66-5.59-20.26,0l-27.38,27.38,27.38,27.38c5.59,5.59,14.66,5.59,20.26,0Z"/>
          <path class="cls-2" d="M303.64,197.51l27.38-27.38c5.59-5.59,5.59-14.66,0-20.26l-17.26-17.26c-5.59-5.59-14.66-5.59-20.26,0l-17.26,17.26c-5.59,5.59-5.59,14.66,0,20.26l27.38,27.38Z"/>
          <path class="cls-2" d="M276.25,245.15l17.26,17.26c5.59,5.59,14.66,5.59,20.26,0l27.38-27.38-37.51-37.51-27.38,27.38c-5.59,5.59-5.59,14.66,0,20.26Z"/>
        </g>
        <g>
          <rect class="cls-2" x="174.5" y="131.73" width="31.51" height="324.6" rx="14.91" ry="14.91"/>
          <rect class="cls-2" x="378.73" y="314.35" width="31.51" height="141.99" rx="9.86" ry="9.86"/>
          <rect class="cls-2" x="276.95" y="323.04" width="31.51" height="235.08" rx="15.76" ry="15.76" transform="translate(733.28 147.87) rotate(90)"/>
        </g>
      </g>
    </g>
  </g>
</svg>
